inDegrees=no
num_controls=7
num_derivatives=13
num_iterations=203
num_multipliers=7
num_parameters=0
num_slacks=7
num_states=26
objective=5.227029
objective_accelerations=0.624731
objective_balance=0.038801
objective_effort=0.591462
objective_height=3.922985
objective_ligament=0.049050
solver_duration=1989.942326
status=Solve_Succeeded
success=true
DataType=double
version=3
OpenSimVersion=4.4-2022-07-23-0e9fedc
endheader
time	/jointset/ground_pelvis/pelvis_tilt/value	/jointset/ground_pelvis/pelvis_tx/value	/jointset/ground_pelvis/pelvis_ty/value	/jointset/hip_l/hip_flexion_l/value	/jointset/hip_l/hip_adduction_l/value	/jointset/hip_l/hip_rotation_l/value	/jointset/back/lumbar_extension/value	/jointset/patellofemoral_l/patellar_flexion_l/value	/jointset/knee_l/knee_flexion_l/value	/jointset/knee_l/knee_adduction_l/value	/jointset/knee_l/knee_rotation_l/value	/jointset/ankle_l/ankle_angle_l/value	/jointset/subtalar_l/subtalar_angle_l/value	/jointset/ground_pelvis/pelvis_tilt/speed	/jointset/ground_pelvis/pelvis_tx/speed	/jointset/ground_pelvis/pelvis_ty/speed	/jointset/hip_l/hip_flexion_l/speed	/jointset/hip_l/hip_adduction_l/speed	/jointset/hip_l/hip_rotation_l/speed	/jointset/back/lumbar_extension/speed	/jointset/patellofemoral_l/patellar_flexion_l/speed	/jointset/knee_l/knee_flexion_l/speed	/jointset/knee_l/knee_adduction_l/speed	/jointset/knee_l/knee_rotation_l/speed	/jointset/ankle_l/ankle_angle_l/speed	/jointset/subtalar_l/subtalar_angle_l/speed	/forceset/tau_hip_flexion_l	/forceset/tau_hip_adduction_l	/forceset/tau_hip_rotation_l	/forceset/tau_knee_flexion_l	/forceset/tau_ankle_angle_l	/forceset/tau_subtalar_angle_l	/forceset/tau_lumbar_extension	lambda_cid13_p0	lambda_cid13_p1	lambda_cid13_p2	lambda_cid13_p3	lambda_cid13_p4	lambda_cid13_p5	lambda_cid14_p0	/jointset/ground_pelvis/pelvis_tilt/accel	/jointset/ground_pelvis/pelvis_tx/accel	/jointset/ground_pelvis/pelvis_ty/accel	/jointset/hip_l/hip_flexion_l/accel	/jointset/hip_l/hip_adduction_l/accel	/jointset/hip_l/hip_rotation_l/accel	/jointset/back/lumbar_extension/accel	/jointset/patellofemoral_l/patellar_flexion_l/accel	/jointset/knee_l/knee_flexion_l/accel	/jointset/knee_l/knee_adduction_l/accel	/jointset/knee_l/knee_rotation_l/accel	/jointset/ankle_l/ankle_angle_l/accel	/jointset/subtalar_l/subtalar_angle_l/accel	gamma_cid13_p0	gamma_cid13_p1	gamma_cid13_p2	gamma_cid13_p3	gamma_cid13_p4	gamma_cid13_p5	gamma_cid14_p0
1.5	-0.02713575655468892	-0.03161795416219103	0.8149718335188257	0.8506127588068233	-0.3093788494265764	-0.1193875848035664	-0.8154561443814528	0.9361827803878787	0.9361827803878953	-0.03170563474936321	-0.1745321356825963	0.1879074232749617	0.05311429958006943	0.3951104713224766	0.2438118564916206	0.5982037172168269	-2.447121056089014	0.05273969534987771	-0.5919672693595635	0.8198931126196112	-2.416380841838285	-2.416380841838388	-0.3461986847632827	-9.456592625593541e-05	-0.5181149429948777	-0.1391417064228024	-0.2245196172495985	0.01315040484773429	-0.01035390594972774	-0.2559293147015771	0.07888970696061438	0.05008220995877807	0.2972141415515011	-15.24997230737607	-19.93532138587553	3.700289330617392	-13.16346336422274	-660.1000358676758	-78.79091216021054	-9.080941160957915	0.2979237161063419	0.9025782137857409	-0.8371562222046668	-1.016025240568095	0.3360860590692079	-0.6735450698539471	2.329745520243288	-1.307053087871817	-1.307053087871819	-0.2637985628818492	0.05387838667830142	-0.6682578742970657	0.2244754681680017	3.405928294398114e-07	2.286489311994035e-06	-8.754966574545285e-07	2.024901760012224e-07	4.408756311900242e-07	6.986158190810894e-07	3.771064430123778e-07
1.51	-0.02317008262337007	-0.02913486116946603	0.8209107676082774	0.826092923295875	-0.3088356336444283	-0.1253417387928596	-0.8071419638091996	0.9119565068326523	0.9119565068326398	-0.03518177691805795	-0.174532644621147	0.1826936415513642	0.05173318686711255	0.3979575067780172	0.2527865742025152	0.5894540918750355	-2.456545395251164	0.05591642870274249	-0.5988485629096403	0.8428540592604623	-2.42853843568723	-2.428538435687272	-0.3489863889336279	-1.675659966716464e-05	-0.5245190465724205	-0.1370213228137792	-0.2163901426254246	0.01280725863270201	-0.0102749211874817	-0.2504086996901513	0.07902888465058175	0.0494849854883629	0.2892300481685949	-14.87109646495853	-19.89707711545252	3.871001520134908	-13.09410897772795	-653.8322222665424	-78.5202189790713	-10.0840729293794	0.2680945992429243	0.891926690128882	-0.9131279471503154	-0.8605142972867778	0.3103321681893586	-0.6928182097207943	2.265927850324319	-1.119868544938764	-1.119868544929572	-0.2794259616336435	-0.01687542842210155	-0.6080430430520345	0.2145264699210001	3.327307774460163e-07	2.151761449853814e-06	-9.276459951888036e-07	1.787954321246538e-07	4.438047420735365e-07	6.897291969153021e-07	3.626466983096613e-07
1.52	-0.01917793810970321	-0.02656261937155459	0.8267583529929144	0.8014878691846563	-0.308260277489791	-0.1313641850600973	-0.798600842047674	0.8876187061366193	0.8876187061366011	-0.0386844300519394	-0.174532696994061	0.1774195075032748	0.05037501932277603	0.4004045877921723	0.2616416175289062	0.5799339762539013	-2.464164776143238	0.05916776984739268	-0.6056257249451773	0.8652813504740519	-2.438686269997488	-2.438686269997469	-0.3515008778048977	-3.252635934619516e-06	-0.5301854078927283	-0.134552672698701	-0.2082606680012551	0.0124641124176094	-0.01019593642494146	-0.2448880846787197	0.07916806234053178	0.0488877610178642	0.281245954785695	-14.49254527840798	-19.86293147092035	4.047114109486268	-13.06547662335195	-647.5901906607659	-78.31119875839157	-11.07798210304986	0.2179328278290996	0.8786433368850992	-0.9912542780732302	-0.6550335865526413	0.3510076174263219	-0.6527187669458401	2.223014434790904	-0.9051011801343385	-0.9051011801343329	-0.2091555030668002	0.04101731410729556	-0.5207094228499591	0.2941287693791348	3.93994585003412e-07	1.734860581871806e-06	-1.528869348425368e-06	5.950109411955712e-08	5.297293178778714e-07	6.486065903186411e-07	3.744974228306793e-07
1.53	-0.01516337175811578	-0.02390257979643838	0.8325069835412531	0.7768156910221811	-0.307652160254005	-0.1374505682980647	-0.7898387506753101	0.86318946243119	0.8631894624312282	-0.04221347892160613	-0.1745306945473219	0.1720922400265806	0.04904300228861538	0.4024270741262437	0.270330410453955	0.5696690105135204	-2.469931587428214	0.06247810420498378	-0.611611568792826	0.8869951486954412	-2.446809408273812	-2.446809408273754	-0.3542458693537391	0.0004281448254944093	-0.5351443567685521	-0.1317822060005112	-0.1994802652467217	0.01188104642895013	-0.01011192081345681	-0.2400272711541855	0.07985735508862535	0.04801854073507733	0.2726290497168851	-13.95850535307003	-19.71832676985404	4.183276630373434	-12.94212567196099	-641.3460128587467	-77.97780383945684	-12.05758961531286	0.1822188350922977	0.8585582924401869	-1.062426747966499	-0.4865421861341562	0.3248151089711335	-0.5651148691804965	2.124296220218019	-0.7130478523187911	-0.7130478523130303	-0.2976893845539371	0.04721420525727416	-0.4648972768458032	0.2790753182335394	5.287046183339471e-07	1.018150895182905e-06	-2.71348384313311e-06	-1.613678126470995e-07	7.038365751605794e-07	5.732332502641772e-07	4.143030209019151e-07
1.54	-0.01113101808341183	-0.02115674008764664	0.8381493026269988	0.7520960372895199	-0.3070101859218307	-0.1435955295096287	-0.7808637745798513	0.838689561802853	0.8386895618028656	-0.04576808138753956	-0.1745237754771471	0.1667191011297461	0.04774080386107536	0.4039620524161725	0.2788016442640115	0.5586716837353015	-2.473659890179751	0.06593918912441481	-0.6173413196607198	0.9078582950930415	-2.45281765458763	-2.452817654587534	-0.3566115970530317	0.0009800720107672686	-0.539359691920264	-0.1285889513745439	-0.1906998624922099	0.01129798044022335	-0.01002790520254124	-0.2351664576296684	0.08054664783670008	0.04714932045220885	0.2640121446480751	-13.42070846060856	-19.57232049673853	4.316866882124723	-12.87708848390643	-635.0831090910174	-77.72092404309022	-13.01874125669374	0.1204312190004048	0.8351315138867758	-1.137726485640787	-0.2473318798648481	0.3811577297941536	-0.6015001709952457	2.052884070033062	-0.482122787633201	-0.4821227876331991	-0.1333027331571665	0.06512325887551695	-0.3719866780274594	0.3786863549344512	6.186209705310142e-07	6.117582053062335e-07	-3.453555231911656e-06	-2.958872978252172e-07	8.292904357581595e-07	5.847107777079866e-07	4.422649962317531e-07
1.55	-0.007085665401415184	-0.01832729404361823	0.8436781490601004	0.7273489673535373	-0.3063330967101368	-0.149795579809222	-0.7716844736839773	0.8141400721848248	0.8141400721848079	-0.0493454460940198	-0.1745102319381943	0.1613075721739909	0.04647234804658393	0.405028025460139	0.2870494501305005	0.5469886513570605	-2.475424497962972	0.06948690290061464	-0.6225792384315901	0.9278629676633519	-2.456720105471834	-2.456720105471832	-0.3588431831063164	0.001772587565189369	-0.5428099111734145	-0.1250488429313682	-0.1821283201356864	0.01027013204586478	-0.009838035534707785	-0.230711667878758	0.08136358792811706	0.04630247740438315	0.2556765436800639	-12.88267122773629	-19.42946528193238	4.443406066062175	-12.79672242413117	-629.4658935728542	-77.59840651701857	-13.95860313532445	0.08767085658753231	0.8138178860211667	-1.199746894918214	-0.09150362194174028	0.3432960207728928	-0.4709629473717837	1.953421387666488	-0.2903746134746915	-0.2903746134889094	-0.2653871116175971	0.09217725143428979	-0.3110847713745229	0.3500382033863833	6.569272118569147e-07	5.629046639305878e-07	-3.681435650815289e-06	-3.309172320426325e-07	8.98687121914182e-07	6.962556090084966e-07	4.565810584030249e-07
1.56	-0.003032054887084848	-0.0154165273883268	0.8490869341132191	0.7025941556608437	-0.3056201867968331	-0.156045214339964	-0.7623092935549736	0.7895623443830049	0.7895623443829933	-0.05294458677506331	-0.1744875909341052	0.1558656319812227	0.04524096633939961	0.4056136188838274	0.2950657665166159	0.5346594077387247	-2.475208241521833	0.07310332944640328	-0.627258165892018	0.9470341417191287	-2.458465291342467	-2.45846529134256	-0.3609667919677423	0.002799565027961736	-0.545441939323191	-0.1211741299131024	-0.1735567777791393	0.009242283651539281	-0.009648165866656629	-0.2262568781278388	0.08218052801954245	0.04545563435659702	0.2473409427120632	-12.33904408943209	-19.28375445662325	4.565114412049384	-12.78305486708257	-623.8101364078818	-77.55521392681094	-14.87535987211107	0.02435529494465054	0.7888336178122043	-1.266968733659706	0.1488409650069857	0.3949002837118109	-0.4897019089069237	1.886184367126275	-0.05066978491907109	-0.05066978491907111	-0.1117072947854616	0.1120156405453237	-0.2083484573525574	0.4456072699524299	6.742073995631995e-07	6.5608568414526e-07	-3.706270580189379e-06	-3.326091552627038e-07	9.568907936915188e-07	8.212991080971333e-07	4.647603183057148e-07
